<?xml version="1.0" encoding="utf-8"?>
<!-- Generator: Adobe Illustrator 16.0.0, SVG Export Plug-In . SVG Version: 6.00 Build 0)  -->
<!DOCTYPE svg PUBLIC "-//W3C//DTD SVG 1.1//EN" "http://www.w3.org/Graphics/SVG/1.1/DTD/svg11.dtd">
<svg version="1.1" id="Layer_1" xmlns="http://www.w3.org/2000/svg" xmlns:xlink="http://www.w3.org/1999/xlink" x="0px" y="0px"
	 width="792px" height="612px" viewBox="0 0 792 612" enable-background="new 0 0 792 612" xml:space="preserve">
<rect x="197.319" y="104.351" fill="#E82127" stroke="#FFFFFF" stroke-miterlimit="10" width="404.026" height="404.028"/>
<g>
	<path fill="#231F20" stroke="#231F20" stroke-width="10" stroke-miterlimit="10" d="M334.919,245.77l-0.654,16.11l-2.703,16.288
		l-2.15,12.113l-12.344,10.941l-21.686,9.005l-16.612,1.454l-1.461,0.234c-47.051,5.649-85.55-35.368-64.194-80.377
		c25.824-54.427,117.215-59.297,121.818,11.154"/>
	<path fill="#ECB1AA" stroke="#ECB1AA" stroke-width="10" stroke-miterlimit="10" d="M318.161,254.439
		c-5.728-18.502-18.013-38.863-39.658-38.519c-19.569,0.311-35.793,21.593-36.663,40.183
		C239.639,303.121,329.084,302.614,318.161,254.439z"/>
	<path fill="#231F20" stroke="#231F20" stroke-width="10" stroke-miterlimit="10" d="M459.664,234.857l3.44,15.75l5.492,15.573
		l4.221,11.555l14.055,8.63l22.921,5.104l16.613-1.454l1.48-0.021c47.314-2.606,78.107-49.688,49.26-90.304
		c-34.883-49.116-125.73-38.042-118.031,32.139"/>
	<path fill="#ECB1AA" stroke="#ECB1AA" stroke-width="10" stroke-miterlimit="10" d="M477.673,240.484
		c2.428-19.217,10.991-41.401,32.366-44.821c19.326-3.092,39,15.05,43.084,33.205C563.457,274.79,475.28,289.824,477.673,240.484z"
		/>
	<path fill="#231F20" stroke="#231F20" stroke-width="10" stroke-miterlimit="10" d="M413.742,442.276
		c63.421-5.549,141.275-35.717,124.959-113.898c-14.172-67.891-76.765-108.198-143.934-103.362l0.987-0.086
		c-66.988,6.902-121.632,57.465-123.797,126.786c-2.493,79.826,79.416,96.018,142.836,90.469"/>
	<path fill="none" stroke="#FFFFFF" stroke-width="10" stroke-miterlimit="10" d="M484.304,343.464
		c30.403-15.193,74.847-19.904,107.292-8.82"/>
	<path fill="none" stroke="#FFFFFF" stroke-width="10" stroke-miterlimit="10" d="M485.847,350.292
		c27.876-4.732,59.112-8.566,86.421,0.939"/>
	<path fill="#ECB1AA" stroke="#ECB1AA" stroke-width="10" stroke-miterlimit="10" d="M423.02,353.598
		c0.598,6.831-6.211,15.831-15.258,16.622c-9.046,0.791-16.905-6.925-17.502-13.756s6.563-9.44,15.609-10.232
		C414.916,345.44,422.422,346.767,423.02,353.598z"/>
	<path fill="none" stroke="#FFFFFF" stroke-width="10" stroke-miterlimit="10" d="M331.245,372.763
		c-33.861,2.94-74.211,22.156-96.076,48.566"/>
	<path fill="none" stroke="#FFFFFF" stroke-width="10" stroke-miterlimit="10" d="M333.499,379.389
		c-26.237,10.538-54.871,23.598-73.181,45.978"/>
	<path fill="none" stroke="#FFFFFF" stroke-width="10" stroke-miterlimit="10" d="M383.573,420.392
		c12.664-17.033,33.857-16.363,54.192-20.824"/>
	<g>
		<path fill="none" stroke="#FFFFFF" stroke-width="10" stroke-miterlimit="10" d="M466.4,309.333
			c-17.07-6.588-36.804-7.235-52.266,2.959"/>
		<path fill="none" stroke="#FFFFFF" stroke-width="10" stroke-miterlimit="10" d="M465.252,291.657
			c-18.26-1.137-37.27,4.194-48.941,18.578"/>
	</g>
	<g>
		<path fill="none" stroke="#FFFFFF" stroke-width="10" stroke-miterlimit="10" d="M338.577,338.344
			c12.971-12.903,30.772-21.44,49.033-18.333"/>
		<path fill="none" stroke="#FFFFFF" stroke-width="10" stroke-miterlimit="10" d="M332.508,321.702
			c16.258-8.395,35.806-11.167,52.279-2.699"/>
	</g>
</g>
</svg>
